<?xml version="1.0" encoding="utf-8"?>
<!-- Generator: Adobe Illustrator 22.1.0, SVG Export Plug-In . SVG Version: 6.00 Build 0)  -->
<svg version="1.1" id="Layer_1" xmlns="http://www.w3.org/2000/svg" xmlns:xlink="http://www.w3.org/1999/xlink" x="0px" y="0px"
	 viewBox="0 0 43.6 43.6" style="enable-background:new 0 0 43.6 43.6;" xml:space="preserve">
<path d="M24.7,25.5H18c2.7-6.3,2.3-4.6,2.3-9.1h-3v0.4c0,3.6-1.5,6.4-3,9.7L8.6,38.3c-0.2,0.5-0.4,1.1-0.4,1.6
	c0,1.9,1.5,3.7,3.6,3.7h19.8c2.1,0,3.6-1.7,3.6-3.7c0-0.5-0.1-1.1-0.4-1.6l-5.6-11.8c-1.6-3.3-3-6-3-9.7v-0.4h-3
	c0,5.1-0.1,3.4,3.3,11.4l5.6,11.8c0.2,0.5-0.1,1-0.6,1 M18.9,40.5c-0.9,0-1.7-0.4-2.3-1c-0.5-0.5-0.9-1.3-0.9-2
	c0-0.8,0.4-1.5,0.9-2.1c0.3-0.4,0.7-0.8,0.8-1.3c0.1-0.5,0.1-1-0.2-1.5c-0.2-0.5-0.6-0.8-1-1.1c-0.1-0.1-0.3-0.2-0.4-0.3
	c1,0,2,0.2,2.8,0.8c0.6,0.4,1,1.1,1.1,1.8c0.1,0.7-0.1,1.4-0.5,1.9c-0.2,0.4-0.6,0.7-0.9,1c-0.3,0.4-0.5,1-0.5,1.5
	c0,0.8,0.4,1.5,0.9,2c0.1,0.1,0.2,0.2,0.2,0.3C19.1,40.4,19,40.4,18.9,40.5z M20.6,38.9c0.1,0.2,0.2,0.4,0.2,0.5
	c0,0.1-0.1,0.2-0.2,0.2c-0.5-0.1-1-0.5-1.2-0.9c-0.3-0.4-0.4-1-0.4-1.5c0-0.6,0.4-1.2,0.8-1.6c0.2-0.3,0.5-0.5,0.7-0.8
	c0.2-0.5,0.2-1,0-1.5c-0.1-0.3-0.4-0.5-0.6-0.8c0.7,0.1,1.4,0.4,1.9,0.9c0.5,0.6,0.6,1.6,0.2,2.3c-0.3,0.6-1,0.8-1.3,1.4
	C20.4,37.8,20.4,38.4,20.6,38.9z M23.6,36.8c-0.2,0.2-0.5,0.4-0.7,0.6c-0.3,0.3-0.4,0.8-0.3,1.2c0,0.2,0.1,0.5,0.2,0.7
	c0,0.1,0,0.3-0.2,0.2c-0.5-0.1-0.9-0.5-1-1c-0.1-0.4-0.2-0.8-0.1-1.2c0.1-0.4,0.4-0.7,0.7-0.9c0.2-0.1,0.4-0.3,0.5-0.5
	c0.3-0.4,0.3-0.9,0.1-1.3c-0.1-0.3-0.3-0.5-0.5-0.8c0.4,0.1,0.8,0.3,1.1,0.5c0.4,0.3,0.6,0.6,0.7,1.1C24.2,35.9,24,36.5,23.6,36.8z
	 M20.6,13.1c0,1.1-0.9,2-2,2s-2-0.9-2-2s0.9-2,2-2S20.6,12,20.6,13.1z M28.8,9.6c0,1.9-1.6,3.5-3.5,3.5s-3.5-1.6-3.5-3.5
	s1.6-3.5,3.5-3.5S28.8,7.7,28.8,9.6z M20.6,6.8c0,1.6-1.3,3-3,3c-1.6,0-3-1.3-3-3s1.3-3,3-3C19.3,3.8,20.6,5.2,20.6,6.8z M24.5,2.4
	c0,0.8-0.6,1.4-1.4,1.4c-0.8,0-1.4-0.6-1.4-1.4S22.3,1,23.1,1C23.9,1,24.5,1.6,24.5,2.4z"/>
</svg>
