<?xml version="1.0" encoding="utf-8"?>
<!-- Generator: Adobe Illustrator 22.1.0, SVG Export Plug-In . SVG Version: 6.00 Build 0)  -->
<svg version="1.1" id="Layer_1" xmlns="http://www.w3.org/2000/svg" xmlns:xlink="http://www.w3.org/1999/xlink" x="0px" y="0px"
	 viewBox="0 0 40 40" style="enable-background:new 0 0 40 40;" xml:space="preserve">
<path d="M33.5,6.4L15,1.7L1.9,15.6l5.4,18.6l18.5,4.7L38.9,25L33.5,6.4z M28.5,15.9c0,2.1-1.7,3.8-3.7,3.7c-0.1,0-0.2,0-0.5,0
	c-0.3,0-0.6,0.1-0.7,0.1c-0.9,0-1.8,0.5-2.5,1.2c0,0,0,0,0,0c-0.7,0.7-1.2,1.7-1.4,2.6c0,0.3-0.1,1.1-0.1,1.3c0,1-0.4,1.9-1.1,2.6
	c-0.7,0.7-1.6,1.1-2.6,1c-2,0-3.7-1.7-3.7-3.8c0-1,0.4-1.9,1.1-2.6c0.7-0.7,1.6-1.1,2.6-1.1c0.1,0,1,0,1.3,0c1.9-0.2,3.9-2.1,3.9-4
	c0-0.1,0-0.2,0-0.4c0-0.3,0-0.7,0-0.8c0-1,0.4-1.9,1.1-2.6c0.7-0.7,1.6-1.1,2.6-1.1c1,0,1.9,0.4,2.6,1.1
	C28.2,13.9,28.5,14.9,28.5,15.9z"/>
</svg>
