<?xml version="1.0" encoding="UTF-8"?><svg baseProfile="tiny" version="1.2" viewBox="0 0 100 70" xml:space="preserve" xmlns="http://www.w3.org/2000/svg"><g fill="#000"><path d="m44.9 43.9c-3.6 0.1-7.1-1.7-9.5-4.4-2.2-2.3-3.7-5.4-3.8-8.6 0.1-3.3 1.6-6.4 3.7-8.9 1.3-1.7 3-3.3 3.5-5.5 0.5-2.1 0.3-4.3-0.7-6.3-1-1.9-2.4-3.5-4-4.8-0.6-0.4-1.2-0.9-1.8-1.4 4.2 0.1 8.5 0.9 11.9 3.3 2.5 1.7 4 4.5 4.6 7.4 0.5 2.8-0.4 5.7-2 8-1 1.6-2.5 2.8-3.6 4.3-1.4 1.8-2.2 4-2.1 6.3 0.1 3.2 1.6 6.1 3.7 8.5 0.3 0.4 0.8 0.8 0.9 1.4-0.2 0.3-0.4 0.6-0.8 0.7z"/><path d="m51.9 37.5c0.3 0.8 0.7 1.5 1 2.2 0.1 0.5-0.4 0.9-0.9 0.8-2.1-0.4-4-1.9-5.1-3.7s-1.8-4-1.7-6.1c0.2-2.5 1.6-4.9 3.5-6.6 1-1.1 2.3-2 2.9-3.4 1-2 0.8-4.4-0.2-6.4-0.6-1.3-1.6-2.3-2.5-3.5 2.9 0.6 5.8 1.7 7.8 3.9 2.3 2.6 2.6 6.6 0.8 9.6-1.3 2.4-4 3.5-5.3 5.9-1.2 2.3-1.1 5-0.3 7.3z"/><path d="m64.5 28.6c-0.9 0.9-2.1 1.5-2.9 2.4-1.2 1.3-1.7 3.3-1.4 5 0.1 1 0.5 1.9 0.8 2.8 0.2 0.5-0.2 1.1-0.7 0.9-2.1-0.4-3.7-2.2-4.4-4.2-0.6-1.7-0.9-3.5-0.3-5.2 0.5-1.6 1.6-2.9 2.8-3.9 0.7-0.6 1.6-1.1 2.1-1.9 1.2-1.5 1.3-3.6 0.6-5.3-0.4-1.2-1.3-2.1-2-3.2 1.7 0.4 3.2 1.1 4.7 2 1.5 1.1 2.6 2.7 2.8 4.5 0.4 2.3-0.5 4.6-2.1 6.1z"/></g><path d="m7.6 49.5c0.3-0.1 0.7-0.2 1-0.2 0.1 0.3 0.1 0.7 0.1 1v4.9c0.6-0.5 1.3-0.9 2.1-1 1.2-0.1 2.4 0.2 3.2 1.1 0.9 1.1 1.2 2.5 1.3 3.9 0.1 1.8-0.1 3.6-1 5.1-0.6 1-1.7 1.8-2.9 1.9-0.9 0.2-1.7 0.2-2.4-0.2-0.3-0.2-0.5-0.4-0.8-0.7-0.1 0.4-0.2 0.7-0.4 1-0.1 0.1-0.3 0.1-0.5 0-0.6-0.1-1.2-0.3-1.7-0.4-0.1 0-0.3-0.1-0.4-0.2 0-0.3 0.2-0.5 0.3-0.7 0.3-0.7 0.2-1.4 0.2-2.1v-12.7c0-0.2 0.1-0.3 0.2-0.4 0.6-0.1 1.1-0.2 1.7-0.3zm1 7.8v6.2c0 0.2 0.2 0.2 0.3 0.3 0.6 0.4 1.4 0.3 2 0s1-1 1.2-1.6c0.3-1 0.3-2 0.2-3.1-0.1-0.7-0.2-1.4-0.7-2-0.4-0.5-1.2-0.7-1.9-0.5-0.4 0.1-0.8 0.4-1.1 0.7z" fill="#fff"/><path d="m36.7 49.4c0.2 0 0.5-0.1 0.7-0.1 0.1 0.1 0.1 0.3 0.1 0.5v9c1.4-1.3 2.7-2.7 4-4.1 0.2-0.2 0.4-0.5 0.7-0.6 0.3 0.1 0.5 0.4 0.8 0.6 0.3 0.3 0.6 0.5 0.9 0.8 0.1 0.3-0.2 0.4-0.4 0.6-1.2 1.2-2.4 2.3-3.5 3.5 1.4 1.7 2.8 3.4 4.3 5.1 0.1 0.1 0.2 0.4 0 0.5-0.6 0.4-1.2 0.7-1.8 1-0.1 0.1-0.3 0.2-0.4 0.1-0.2-0.1-0.3-0.4-0.5-0.6-1.3-1.7-2.6-3.5-4-5.2v5.1c0 0.2-0.1 0.3-0.3 0.3h-2.5c-0.2 0-0.2-0.2-0.2-0.3v-15.3c0-0.2 0-0.4 0.3-0.4 0.5-0.2 1.1-0.3 1.8-0.5z" fill="#fff"/><path d="m16.8 54.9c0.6-0.2 1.1-0.5 1.7-0.7 0.2 0.1 0.3 0.2 0.3 0.4 0.3 0.4 0.4 0.9 0.5 1.4 0.5-0.6 1.1-1.3 1.9-1.6 0.6-0.2 1.3-0.2 1.9 0 0.2 0.1 0.4 0.2 0.4 0.4-0.1 0.4-0.3 0.7-0.4 1.1-0.2 0.4-0.3 0.8-0.5 1.2-0.5-0.1-1-0.4-1.5-0.2s-0.9 0.5-1.2 0.8c-0.1 0.1-0.2 0.2-0.2 0.3v7.6c0 0.1-0.1 0.3-0.2 0.3h-2.5c-0.2 0-0.2-0.2-0.2-0.3v-7.1c0-0.9-0.1-1.8-0.4-2.7-0.1-0.2-0.2-0.4-0.2-0.7 0.2-0.1 0.4-0.1 0.6-0.2z" fill="#fff"/><path d="m27.3 54.3c1.2-0.2 2.6-0.1 3.6 0.6 1.1 0.7 1.8 2 2.1 3.2 0.3 1.3 0.3 2.7 0 4.1-0.3 1.3-0.9 2.5-2 3.3s-2.7 1-4 0.7c-1.2-0.3-2.2-1-2.8-2-0.9-1.4-1-3.1-0.9-4.7 0.1-1.5 0.6-3 1.6-4 0.7-0.6 1.6-1 2.4-1.2zm0.4 2.3c-0.9 0.3-1.1 1.3-1.2 2.2s-0.1 1.9 0 2.9c0.1 0.6 0.2 1.3 0.5 1.8 0.6 0.9 2.1 0.8 2.6-0.1 0.4-0.6 0.4-1.2 0.5-1.9 0.1-0.9 0.1-1.9 0-2.8-0.1-0.6-0.2-1.2-0.6-1.7s-1.2-0.6-1.8-0.4z" fill="#fff"/><path d="m46.8 54.9c1.1-0.7 2.5-0.8 3.8-0.5 1 0.2 1.8 0.9 2.3 1.8 0.7 1.3 0.9 2.7 0.9 4.2 0 0.2 0 0.4-0.1 0.6-0.1 0.1-0.3 0.1-0.5 0.1h-6.1c0 0.7 0.1 1.5 0.6 2.1 0.4 0.5 1 0.7 1.6 0.7 0.8 0.1 1.7-0.1 2.5-0.5 0.2-0.1 0.5-0.2 0.7-0.3 0.2 0 0.3 0.2 0.4 0.3 0.2 0.5 0.4 0.9 0.6 1.4 0.1 0.3-0.2 0.5-0.4 0.6-0.6 0.4-1.4 0.6-2.1 0.7-1.6 0.3-3.3 0.3-4.7-0.6-1.1-0.7-1.8-2.1-2-3.4-0.2-1.5-0.2-3 0.3-4.5 0.4-1.1 1.1-2.1 2.2-2.7zm0.9 2.1c-0.4 0.5-0.5 1.2-0.6 1.9h3.6c0-0.7 0-1.5-0.5-2-0.6-0.8-2-0.7-2.5 0.1z" fill="#fff"/><path d="m56.4 54.4c0.3-0.1 0.5-0.2 0.8-0.2s0.4 0.3 0.5 0.6 0.2 0.7 0.3 1c0.5-0.5 1.1-1 1.8-1.2 0.9-0.4 1.9-0.5 2.8-0.2 0.7 0.2 1.3 0.8 1.6 1.5 0.3 0.8 0.3 1.6 0.3 2.4v7.4c0 0.2-0.1 0.3-0.3 0.3h-2.5c-0.2 0-0.2-0.2-0.2-0.3v-7.2c0-0.5-0.1-1-0.4-1.4-0.3-0.3-0.8-0.4-1.2-0.3-0.7 0.1-1.2 0.5-1.7 0.9v8c0 0.2 0 0.4-0.2 0.3h-2.5c-0.2 0-0.2-0.2-0.2-0.3v-7.5c0-0.9 0-1.9-0.4-2.7-0.1-0.2-0.1-0.4 0.1-0.5 0.5-0.3 0.9-0.4 1.4-0.6z" fill="#fff"/><path d="m66.7 54.8c1.1-0.4 2.3-0.6 3.5-0.6 1.1 0 2.2 0.1 3 0.9 0.7 0.6 1 1.7 1 2.6v4.3c0 0.8 0 1.7 0.3 2.5 0.1 0.3 0.3 0.6 0.3 1-0.3 0.2-0.7 0.3-1 0.5-0.4 0.2-0.8 0.4-1.3 0.5-0.4-0.4-0.5-0.9-0.6-1.4-0.5 0.6-1.2 1.1-2 1.2-1.1 0.2-2.2 0.1-3.2-0.5-0.7-0.5-1.1-1.3-1.3-2.2-0.1-0.9-0.1-1.9 0.4-2.7 0.4-0.7 1.1-1.2 1.9-1.5 1.2-0.4 2.4-0.5 3.7-0.5 0-0.6 0.1-1.2-0.2-1.7-0.2-0.4-0.5-0.6-0.9-0.6-0.9-0.1-1.8 0.1-2.7 0.4-0.3 0.1-0.5 0.2-0.8 0.2-0.2-0.1-0.2-0.3-0.3-0.5-0.1-0.4-0.3-0.9-0.4-1.3-0.1-0.3 0.3-0.5 0.6-0.6zm2.7 6.2c-0.4 0.1-0.8 0.4-1 0.7-0.4 0.6-0.3 1.6 0.2 2.1 0.4 0.4 0.9 0.5 1.4 0.3 0.5-0.1 1-0.5 1.3-0.8v-2.5c-0.6 0-1.3 0-1.9 0.2z" fill="#fff"/><path d="m86.1 56.5c0.7-1.1 1.9-2 3.2-2.2 1.4-0.2 2.9 0 3.9 1 0.9 0.9 1.3 2.2 1.5 3.5 0 0.4 0.1 0.7 0.1 1.1 0 0.3 0 0.6-0.1 0.9-0.1 0.2-0.3 0.2-0.5 0.2h-6.2c0 0.7 0.1 1.6 0.6 2.1s1.2 0.7 1.9 0.7c0.9 0 1.7-0.2 2.5-0.6 0.2-0.1 0.5-0.2 0.6 0l0.6 1.5c0.1 0.3-0.2 0.5-0.4 0.6-0.7 0.4-1.6 0.6-2.4 0.8-1.5 0.3-3.3 0.1-4.5-0.8-1.1-0.8-1.7-2.2-1.9-3.6 0-1.7 0.2-3.6 1.1-5.2zm2.8 0.3c-0.6 0.5-0.7 1.4-0.8 2.1h3.6c0-0.7 0-1.3-0.4-1.9-0.5-0.8-1.8-0.8-2.4-0.2z" fill="#fff"/><path d="m75.9 55.2c0.7-0.2 1.3-0.5 2-0.7 0.2-0.1 0.2 0.1 0.3 0.2 0.6 1.1 1.3 2.2 1.9 3.3 0.1 0.1 0.1 0.2 0.2 0.2 0.5-0.8 1.1-1.5 1.6-2.3 0.3-0.5 0.6-1 1-1.4 0.7 0.2 1.4 0.5 2.1 0.8 0.2 0.1 0.5 0.2 0.3 0.5-1.1 1.5-2.2 3.1-3.2 4.6 1.1 1.5 2.1 3 3.2 4.4 0.1 0.1 0.2 0.3 0.3 0.4 0 0.2-0.2 0.2-0.3 0.3-0.6 0.2-1.2 0.5-1.8 0.7-0.1 0-0.4 0.2-0.4 0-0.9-1.3-1.8-2.5-2.6-3.8-0.8 1.3-1.7 2.5-2.5 3.7-0.1 0.1-0.1 0.3-0.3 0.2-0.5-0.2-1.1-0.4-1.6-0.6-0.3-0.1-0.5-0.2-0.7-0.3-0.1-0.2 0-0.3 0.1-0.5 1.1-1.5 2.3-3 3.4-4.6-1-1.4-2-2.9-2.9-4.3-0.1-0.1-0.2-0.3-0.2-0.4-0.4-0.3-0.1-0.4 0.1-0.4z" fill="#fff"/></svg>