<?xml version="1.0" encoding="utf-8"?>
<!-- Generator: Adobe Illustrator 22.1.0, SVG Export Plug-In . SVG Version: 6.00 Build 0)  -->
<svg version="1.1" id="Layer_1" xmlns="http://www.w3.org/2000/svg" xmlns:xlink="http://www.w3.org/1999/xlink" x="0px" y="0px"
	 viewBox="0 0 38.5 43.6" style="enable-background:new 0 0 38.5 43.6;" xml:space="preserve">
<g>
	<path d="M14.4,43.4c-3.9,0.1-7.7-1.8-10.3-4.8c-2.4-2.5-4-5.9-4.1-9.3c0.1-3.6,1.7-6.9,4-9.6c1.4-1.8,3.3-3.6,3.8-6
		C8.3,11.5,8.1,9.1,7,6.9C6,4.8,4.4,3.1,2.7,1.7c-0.7-0.4-1.3-1-2-1.5c4.6,0.1,9.2,1,12.9,3.6c2.7,1.8,4.3,4.9,5,8
		c0.5,3-0.4,6.2-2.2,8.7c-1.1,1.7-2.7,3-3.9,4.7c-1.5,2-2.4,4.3-2.3,6.8c0.1,3.5,1.7,6.6,4,9.2c0.3,0.4,0.9,0.9,1,1.5
		C15.1,43,14.8,43.3,14.4,43.4z"/>
	<path d="M22,36.5c0.3,0.9,0.8,1.6,1.1,2.4c0.1,0.5-0.4,1-1,0.9c-2.3-0.4-4.3-2.1-5.5-4s-2-4.3-1.8-6.6c0.2-2.7,1.7-5.3,3.8-7.2
		c1.1-1.2,2.5-2.2,3.1-3.7c1.1-2.2,0.9-4.8-0.2-6.9c-0.7-1.4-1.7-2.5-2.7-3.8c3.1,0.7,6.3,1.8,8.5,4.2c2.5,2.8,2.8,7.2,0.9,10.4
		c-1.4,2.6-4.3,3.8-5.7,6.4C21,31.1,21.1,34,22,36.5z"/>
	<path d="M35.7,26.8c-1,1-2.3,1.6-3.1,2.6c-1.3,1.4-1.8,3.6-1.5,5.4c0.1,1.1,0.5,2.1,0.9,3c0.2,0.5-0.2,1.2-0.8,1
		c-2.3-0.4-4-2.4-4.8-4.6c-0.7-1.8-1-3.8-0.3-5.6c0.5-1.7,1.7-3.1,3-4.2c0.8-0.7,1.7-1.2,2.3-2.1c1.3-1.6,1.4-3.9,0.7-5.7
		c-0.4-1.3-1.4-2.3-2.2-3.5c1.8,0.4,3.5,1.2,5.1,2.2c1.6,1.2,2.8,2.9,3,4.9C38.4,22.7,37.4,25.2,35.7,26.8z"/>
</g>
</svg>
