<?xml version="1.0" encoding="utf-8"?>
<!-- Generator: Adobe Illustrator 22.1.0, SVG Export Plug-In . SVG Version: 6.00 Build 0)  -->
<svg version="1.1" id="Layer_1" xmlns="http://www.w3.org/2000/svg" xmlns:xlink="http://www.w3.org/1999/xlink" x="0px" y="0px"
	 viewBox="0 0 40 40" style="enable-background:new 0 0 40 40;" xml:space="preserve">
<path d="M27.2,23.8L27.2,23.8c-0.6-0.6-1.4-1-2.3-1c-0.9,0-1.7,0.3-2.4,0.9l-2.3,2.2c-1.3,1-2.9,1.5-4.6,1.5c-4.3,0-7.7-3.5-7.7-7.7
	c0-4.3,3.5-7.7,7.7-7.7c1.7,0,3.4,0.6,4.7,1.6l2,1.9c0.6,0.6,1.5,0.9,2.4,0.9c0.9,0,1.7-0.4,2.3-1c1.3-1.3,1.2-3.4-0.1-4.7l-2-1.8
	l0,0c-2.6-2.2-6-3.5-9.4-3.5c-8,0-14.5,6.5-14.5,14.5c0,8,6.5,14.5,14.5,14.5c2.3,0,4.5-0.5,6.6-1.6c1.9-1,3.7-2.4,5-4.2l0.1-0.1
	C28.4,27.2,28.4,25.1,27.2,23.8z"/>
<path d="M39.2,19.7c0-2.6-1.8-4.9-4.3-5.5c-0.1,0-0.1,0-0.2,0c0,0,0,0,0,0c-0.4-0.1-0.8-0.1-1.2-0.1c-0.8,0-1.7,0.1-2.3,0.6
	c0,0-0.1,0.1-0.1,0.1c-0.6,0.3-1.1,0.7-1.5,1.1c-0.1,0.1-0.2,0.2-0.4,0.3c-0.9,0.7-1.9,1.4-2.9,1.8c-1.7,0.8-3.2,0.3-4.7-0.7
	c-0.7-0.4-1.3-0.9-2-1.4c-0.4-0.4-0.8-0.7-1.3-1c0,0-0.1-0.1-0.1-0.1c-1-0.8-2.5-0.8-3.7-0.6c-2.6,0.5-4.6,2.8-4.6,5.5
	c0,2.4,1.6,4.5,3.7,5.3c0.3,0.1,0.7,0.3,1.1,0.3c0.7,0.1,1.4,0.1,2.1,0c0.5-0.1,0.9-0.3,1.3-0.6c0.5-0.3,1-0.6,1.4-1
	c0.9-0.7,1.8-1.3,2.8-1.9c1.6-0.9,3.1-1,4.7-0.1c0.9,0.5,1.7,1.1,2.5,1.7c0.4,0.5,0.9,0.8,1.4,1.2c0.3,0.2,0.7,0.5,1,0.6
	c0.7,0.2,1.4,0.2,2.1,0.2c0.5,0,1-0.2,1.5-0.4C37.6,24.2,39.2,22.1,39.2,19.7z"/>
</svg>
