<svg xmlns="http://www.w3.org/2000/svg" viewBox="0 0 193.93 192.98"><defs><style>.a{fill:#60AA45;}.b{fill:#8CC640;}.c{fill:#fff;}</style></defs><title>logo-js</title><polyline class="a" points="17.64 149.34 96.7 192.98 176.29 153.93 193.93 45.72 97.12 0 0 45.72"/><polygon class="b" points="166.35 146.66 97.12 181.16 97.12 14.55 182.98 53.62 166.35 146.66"/><path class="c" d="M139.18,137.24l-18.79-33.58c8.42-4.53,14-12.6,14-25,0-21.55-16-27.93-34.58-27.93H67.62v86.46H90.5v-29h8.26l14.89,29ZM90.5,68.87h7.72c9,0,13.83,2.39,13.83,9.84s-4.79,11.44-13.83,11.44H90.5Z" transform="translate(-3 -3.69)"/></svg>